<svg id="Capa_1" data-name="Capa 1" xmlns="http://www.w3.org/2000/svg" viewBox="0 0 1200 1200"><defs><style>.cls-1{fill:#fff;}</style></defs><polygon class="cls-1" points="79.47 699.67 79.47 677.49 211.48 677.49 211.48 566.55 145.47 566.55 145.47 610.93 123.47 610.93 123.47 588.74 123.47 544.37 211.48 544.37 233.49 544.37 233.49 588.74 233.49 677.49 233.49 699.67 79.47 699.67"/><polygon class="cls-1" points="79.47 500 277.49 500 277.49 677.49 277.49 699.67 255.49 699.67 255.49 677.49 255.49 522.19 101.47 522.19 101.47 633.12 167.48 633.12 167.48 588.75 189.48 588.75 189.48 633.12 189.48 655.3 189.48 655.3 101.47 655.3 79.47 655.3 79.47 633.12 79.47 500"/><path class="cls-1" d="M327,692.16c0,3.38,2.47,4.71,5.52,4.71,3.35,0,4.6-1.66,4.6-3.32a2.62,2.62,0,0,0-1.8-2.71c-1.52-.58-3.5-1-6.49-1.81-3.72-1-4.81-3.29-4.81-5.56,0-4.39,4-6.45,7.95-6.45,4.54,0,8.35,2.42,8.35,7h-3.81c-.18-2.82-2.07-3.87-4.69-3.87-1.77,0-4,.65-4,2.86,0,1.53,1,2.39,2.59,2.82.34.1,5.15,1.36,6.28,1.69a5.81,5.81,0,0,1,4.24,5.6c0,4.91-4.33,6.88-8.66,6.88-5,0-9-2.4-9.08-7.84Z"/><path class="cls-1" d="M368.85,688.51c0,6.27-3.9,11.49-10.42,11.49S348,694.78,348,688.51,351.91,677,358.43,677,368.85,682.24,368.85,688.51Zm-17,0c0,4.21,1.95,8.36,6.61,8.36s6.61-4.15,6.61-8.36-2-8.36-6.61-8.36S351.82,684.3,351.82,688.51Z"/><path class="cls-1" d="M377.36,677.54h3.81v18.62h11.06v3.32H377.36Z"/><path class="cls-1" d="M399.15,677.54H403v12.78c0,2.95.18,6.36,5.12,6.36s5.11-3.41,5.11-6.36V677.54H417v14c0,5.62-3.56,8.42-8.92,8.42s-8.93-2.8-8.93-8.42Z"/><path class="cls-1" d="M441.1,684.51c-.64-2.52-2.26-4.36-5.43-4.36-4.66,0-6.61,4.15-6.61,8.36s1.95,8.36,6.61,8.36c3.38,0,5.24-2.55,5.55-5.75h3.72c-.31,5.25-4,8.88-9.27,8.88-6.52,0-10.42-5.22-10.42-11.49S429.15,677,435.67,677c4.91,0,8.78,2.76,9.23,7.49Z"/><path class="cls-1" d="M453.41,677.54h3.81v21.94h-3.81Z"/><path class="cls-1" d="M486.57,688.51c0,6.27-3.9,11.49-10.42,11.49s-10.42-5.22-10.42-11.49S469.63,677,476.15,677,486.57,682.24,486.57,688.51Zm-17,0c0,4.21,2,8.36,6.62,8.36s6.61-4.15,6.61-8.36-1.95-8.36-6.61-8.36S469.53,684.3,469.53,688.51Z"/><path class="cls-1" d="M495,677.54h4L509,693.7H509V677.54h3.63v21.94h-4l-9.9-16.13h-.09v16.13H495Z"/><path class="cls-1" d="M522.21,677.54h15.66v3.32H526v5.74h11v3.14H526v6.42h12.07v3.32H522.21Z"/><path class="cls-1" d="M548.67,692.16c0,3.38,2.47,4.71,5.52,4.71,3.35,0,4.6-1.66,4.6-3.32a2.62,2.62,0,0,0-1.8-2.71c-1.52-.58-3.5-1-6.49-1.81-3.72-1-4.82-3.29-4.82-5.56,0-4.39,4-6.45,8-6.45,4.54,0,8.35,2.42,8.35,7h-3.81c-.18-2.82-2.07-3.87-4.69-3.87-1.77,0-4,.65-4,2.86,0,1.53,1,2.39,2.59,2.82.33.1,5.15,1.36,6.27,1.69a5.81,5.81,0,0,1,4.24,5.6c0,4.91-4.33,6.88-8.66,6.88-5,0-9-2.4-9.08-7.84Z"/><path class="cls-1" d="M584.64,677.54h9.6c6.22,0,7.41,4.05,7.41,6.79s-1.19,6.76-7.41,6.73h-5.79v8.42h-3.81Zm3.81,10.38H594c1.7,0,3.81-.86,3.81-3.62s-1.74-3.63-3.75-3.63h-5.64Z"/><path class="cls-1" d="M614.08,677.54h4l8.38,21.94h-4.09l-2-5.81H611.7l-2,5.81h-3.93Zm-1.35,13.21h6.65l-3.26-9.43H616Z"/><path class="cls-1" d="M633.74,677.54h10.39c4.75,0,7.19,2.21,7.19,5.93,0,4.21-2.89,5.28-3.59,5.53v.06c1.31.18,3.23,1.17,3.23,4.64,0,2.55.36,4.89,1.18,5.78h-4.08a6.16,6.16,0,0,1-.58-3.23c0-4-.82-5.81-4.32-5.81h-5.61v9h-3.81Zm3.81,10h6.24c2.41,0,3.72-1.19,3.72-3.5,0-2.79-1.8-3.35-3.78-3.35h-6.18Z"/><path class="cls-1" d="M667,677.54h4l8.38,21.94h-4.08l-2.05-5.81H664.6l-2,5.81h-3.93Zm-1.35,13.21h6.65L669,681.32h-.09Z"/><path class="cls-1" d="M700,677.54h3.81v12.78c0,2.95.18,6.36,5.12,6.36s5.12-3.41,5.12-6.36V677.54h3.81v14c0,5.62-3.57,8.42-8.93,8.42s-8.93-2.8-8.93-8.42Z"/><path class="cls-1" d="M727.18,677.54h4l9.94,16.16h.06V677.54h3.63v21.94h-4l-9.9-16.13h-.09v16.13h-3.63Z"/><path class="cls-1" d="M760.38,677.54h4l8.38,21.94h-4.08l-2.05-5.81H758l-2,5.81H752ZM759,690.75h6.64l-3.26-9.43h-.09Z"/><path class="cls-1" d="M793.55,677.54h5.36l6,17.18H805l5.85-17.18h5.31v21.94H812.5V682.55h-.06l-6,16.93h-3.14l-6-16.93h-.06v16.93h-3.62Z"/><path class="cls-1" d="M825.73,677.54h15.66v3.32H829.54v5.74h11v3.14h-11v6.42h12.07v3.32H825.73Z"/><path class="cls-1" d="M862,692.41c0,3.81-.91,7.59-7.16,7.59-4.6,0-6.49-3-6.49-7V691.8h3.81v1.13c0,2.49.67,3.94,3,3.94s3-1.51,3-4.24V677.54H862Z"/><path class="cls-1" d="M891.23,688.51c0,6.27-3.9,11.49-10.42,11.49s-10.42-5.22-10.42-11.49S874.29,677,880.81,677,891.23,682.24,891.23,688.51Zm-17,0c0,4.21,1.95,8.36,6.61,8.36s6.61-4.15,6.61-8.36-1.95-8.36-6.61-8.36S874.2,684.3,874.2,688.51Z"/><path class="cls-1" d="M899.74,677.54h10.39c4.76,0,7.19,2.21,7.19,5.93,0,4.21-2.89,5.28-3.59,5.53v.06c1.31.18,3.23,1.17,3.23,4.64,0,2.55.36,4.89,1.19,5.78h-4.09a6.16,6.16,0,0,1-.58-3.23c0-4-.82-5.81-4.32-5.81h-5.61v9h-3.81Zm3.81,10h6.25c2.41,0,3.72-1.19,3.72-3.5,0-2.79-1.8-3.35-3.78-3.35h-6.19Z"/><path class="cls-1" d="M942.42,692.16c0,3.38,2.47,4.71,5.51,4.71,3.36,0,4.6-1.66,4.6-3.32a2.61,2.61,0,0,0-1.79-2.71c-1.53-.58-3.51-1-6.49-1.81-3.72-1-4.82-3.29-4.82-5.56,0-4.39,4-6.45,8-6.45,4.54,0,8.35,2.42,8.35,7h-3.81c-.18-2.82-2.07-3.87-4.69-3.87-1.76,0-4,.65-4,2.86,0,1.53,1,2.39,2.59,2.82.34.1,5.15,1.36,6.28,1.69a5.81,5.81,0,0,1,4.23,5.6c0,4.91-4.32,6.88-8.65,6.88-5,0-9-2.4-9.08-7.84Z"/><path class="cls-1" d="M984.29,688.51c0,6.27-3.9,11.49-10.42,11.49s-10.42-5.22-10.42-11.49S967.35,677,973.87,677,984.29,682.24,984.29,688.51Zm-17,0c0,4.21,2,8.36,6.62,8.36s6.61-4.15,6.61-8.36-2-8.36-6.61-8.36S967.25,684.3,967.25,688.51Z"/><path class="cls-1" d="M1007.5,684.51c-.64-2.52-2.25-4.36-5.42-4.36-4.66,0-6.61,4.15-6.61,8.36s1.95,8.36,6.61,8.36c3.38,0,5.24-2.55,5.55-5.75h3.71c-.3,5.25-4,8.88-9.26,8.88-6.52,0-10.42-5.22-10.42-11.49s3.9-11.49,10.42-11.49c4.91,0,8.78,2.76,9.23,7.49Z"/><path class="cls-1" d="M1019.82,677.54h3.81v21.94h-3.81Z"/><path class="cls-1" d="M1033.21,677.54h15.66v3.32H1037v5.74h11v3.14h-11v6.42h12.06v3.32h-15.87Z"/><path class="cls-1" d="M1057.44,677.54h9c6.7,0,9.6,4.92,9.6,11s-2.9,11-9.6,11h-9Zm3.81,18.8H1065c6,0,7.26-3.44,7.26-7.83s-1.28-7.84-7.26-7.84h-3.74Z"/><path class="cls-1" d="M1089.1,677.54h4.05l8.39,21.94h-4.09l-2-5.81h-8.69l-2,5.81h-3.93Zm-1.34,13.21h6.64l-3.25-9.43h-.1Z"/><path class="cls-1" d="M1107.77,677.54h9c6.71,0,9.6,4.92,9.6,11s-2.89,11-9.6,11h-9Zm3.81,18.8h3.75c6,0,7.25-3.44,7.25-7.83s-1.27-7.84-7.25-7.84h-3.75Z"/><path class="cls-1" d="M365.54,544.37H386L428.4,655.3H407.76l-10.33-29.36H353.52L343.2,655.3H323.32Zm-6.78,66.81h33.59l-16.49-47.7h-.46Z"/><path class="cls-1" d="M414.51,544.37h89.05v16.78h-35V655.3H449.33V561.15H414.51Z"/><path class="cls-1" d="M524.2,544.37h19.26v44.12h50.08V544.37H612.8V655.3H593.54v-50H543.46v50H524.2Z"/><path class="cls-1" d="M634.93,544.37h79.2v16.78H654.19V590.2h55.47v15.85H654.19v32.47h61V655.3H634.93Z"/><path class="cls-1" d="M737.34,544.37h20.33l50.23,81.72h.31V544.37h18.34V655.3H806.21l-50.08-81.56h-.46V655.3H737.34Z"/><path class="cls-1" d="M848.68,544.37h45.61c33.89,0,48.53,24.86,48.53,55.47s-14.64,55.46-48.53,55.46H848.68Zm19.26,95.08h18.95c30.2,0,36.67-17.4,36.67-39.61s-6.47-39.62-36.67-39.62H867.94Z"/><path class="cls-1" d="M988.85,544.37h20.49l42.37,110.93h-20.64l-10.32-29.36H976.83L966.51,655.3H946.63Zm-6.78,66.81h33.59l-16.49-47.7h-.46Z"/><path class="cls-1" d="M1037.85,544.37h89.05v16.78h-35V655.3h-19.26V561.15h-34.82Z"/></svg>