<svg xmlns="http://www.w3.org/2000/svg" xmlns:xlink="http://www.w3.org/1999/xlink" id="Capa_1" x="0" y="0" version="1.1" viewBox="0 0 124.4 41.5" xml:space="preserve" style="enable-background:new 0 0 124.4 41.5"><style type="text/css">.st0{fill:#fff}.st1{fill-rule:evenodd;clip-rule:evenodd;fill:#1c7a8d}</style><g><polygon points="38 16.7 38 27.5 36 27.5 36 16.7 32.7 16.7 32.7 15 41.3 15 41.3 16.7" class="st0"/><polygon points="45.3 27.4 45.3 15 47.3 15 47.3 19.9 53.4 19.9 53.4 15 55.4 15 55.4 27.5 53.4 27.5 53.4 21.7 47.3 21.6 47.3 27.4" class="st0"/><polygon points="60.6 27.5 60.6 15 67.6 15 67.6 16.7 62.7 16.7 62.7 19.9 67.6 19.9 67.6 21.6 62.7 21.6 62.7 25.6 67.6 25.6 67.6 27.5" class="st0"/><path d="M72.3,27.5V14.6l7.9,7.6c0.2,0.2,0.4,0.4,0.7,0.7c0.2,0.2,0.5,0.5,0.7,0.8V15h1.9v12.9l-8.1-7.7 c-0.2-0.2-0.4-0.4-0.6-0.7c-0.2-0.2-0.4-0.5-0.6-0.7v8.7H72.3L72.3,27.5z" class="st0"/><path d="M90.1,25.6h1.7c0.9,0,1.6-0.1,2.1-0.2s0.9-0.3,1.2-0.6c0.5-0.4,0.8-0.9,1.1-1.5c0.2-0.6,0.4-1.3,0.4-2.1 c0-0.8-0.1-1.5-0.4-2.1c-0.2-0.6-0.6-1.1-1.1-1.5c-0.4-0.3-0.8-0.5-1.3-0.6s-1.3-0.2-2.3-0.2h-0.7h-0.7L90.1,25.6L90.1,25.6z M88.1,27.5V15h2.7c1.8,0,3,0.1,3.7,0.3s1.4,0.5,1.9,0.9c0.7,0.6,1.3,1.3,1.6,2.1c0.4,0.9,0.6,1.8,0.6,2.9s-0.2,2.1-0.6,2.9 c-0.4,0.9-0.9,1.6-1.6,2.1c-0.5,0.4-1.2,0.7-1.9,0.9c-0.7,0.2-1.8,0.3-3.2,0.3h-0.5h-2.7V27.5z" class="st0"/><polygon points="119.7 16.7 119.7 27.5 117.7 27.5 117.7 16.7 114.4 16.7 114.4 15 123 15 123 16.7" class="st0"/><polygon points="19.4 27.5 25.4 14.5 31.4 27.5 29.3 27.5 25.4 19.1 21.5 27.5" class="st0"/><polygon points="101.1 27.5 107.1 14.5 113.1 27.5 111 27.5 107.1 19.1 103.2 27.5" class="st0"/><g><polygon points="4.5 23 3.4 20.7 7.6 11.6 8.8 13.9" class="st1"/><polygon points="10 29.9 8.9 27.6 13.1 18.5 14.2 20.8" class="st1"/><polygon points="6.8 27.6 5.7 25.3 10.9 13.9 12.1 16.2" class="st1"/></g></g></svg>