<svg xmlns="http://www.w3.org/2000/svg" xmlns:xlink="http://www.w3.org/1999/xlink" id="Capa_1" x="0" y="0" version="1.1" viewBox="0 0 124.4 41.5" xml:space="preserve" style="enable-background:new 0 0 124.4 41.5"><style type="text/css">.st0{fill-rule:evenodd;clip-rule:evenodd;fill:#1c7a8d}.st1{fill:#333}</style><g><g><polygon points="5.8 25 3.5 20.9 11.5 4 13.5 8.1" class="st0"/><polygon points="15.6 37.8 13.5 33.7 21.3 16.8 23.6 20.9" class="st0"/><polygon points="9.8 33.7 7.8 29.2 17.4 8.1 19.5 12.5" class="st0"/></g><g><polygon points="32.7 26.6 30.2 26.6 34 15.5 37.1 15.5 40.9 26.6 38.4 26.6 35.6 18 35.5 18" class="st1"/><path d="M41.2,17.4v-1.9h9.2v1.9H47v9.2h-2.3v-9.2H41.2z" class="st1"/><path d="M52.9,26.6V15.5h2.4v4.6h4.8v-4.6h2.3v11.1h-2.3V22h-4.8v4.6H52.9z" class="st1"/><path d="M66.1,26.6V15.5h7.5v1.9h-5.2v2.7h4.8V22h-4.8v2.7h5.2v1.9H66.1z" class="st1"/><path d="M86.8,15.5v11.1h-2l-4.8-7h-0.1v7h-2.4V15.5h2.1l4.8,7h0.1v-7L86.8,15.5L86.8,15.5z" class="st1"/><path d="M95.1,26.6h-3.9V15.5h4c1.1,0,2.1,0.2,2.9,0.7c0.8,0.4,1.4,1.1,1.9,1.9c0.4,0.8,0.7,1.8,0.7,3 c0,1.2-0.2,2.2-0.7,3c-0.4,0.8-1.1,1.5-1.9,1.9C97.2,26.4,96.2,26.6,95.1,26.6z M93.5,24.6H95c0.7,0,1.3-0.1,1.8-0.4 c0.5-0.2,0.8-0.6,1.1-1.2c0.2-0.5,0.4-1.2,0.4-2s-0.1-1.5-0.4-2c-0.2-0.5-0.6-0.9-1.1-1.2c-0.5-0.2-1.1-0.4-1.8-0.4h-1.5 L93.5,24.6L93.5,24.6z" class="st1"/><polygon points="105.2 26.6 102.7 26.6 106.5 15.5 109.5 15.5 113.4 26.6 110.9 26.6 108.1 18 108 18" class="st1"/><path d="M113.7,17.4v-1.9h9.2v1.9h-3.4v9.2h-2.3v-9.2H113.7z" class="st1"/></g></g></svg>