<?xml version="1.0" encoding="utf-8"?>
<!-- Generator: Adobe Illustrator 25.4.1, SVG Export Plug-In . SVG Version: 6.00 Build 0)  -->
<svg version="1.1" id="Capa_1" xmlns="http://www.w3.org/2000/svg" xmlns:xlink="http://www.w3.org/1999/xlink" x="0px" y="0px"
	 viewBox="0 0 124.4 41.5" style="enable-background:new 0 0 124.4 41.5;" xml:space="preserve">
<style type="text/css">
	.st0{fill-rule:evenodd;clip-rule:evenodd;fill:#1C7A8D;}
	.st1{fill:#333333;}
</style>
<g>
	<g>
		<polygon class="st0" points="3.8,24.9 1.5,20.8 9.6,3.6 11.7,7.7 		"/>
		<polygon class="st0" points="13.8,37.9 11.7,33.8 19.6,16.6 21.9,20.8 		"/>
		<polygon class="st0" points="7.9,33.8 5.9,29.2 15.7,7.7 17.7,12.3 		"/>
	</g>
	<g>
		<polygon class="st1" points="31.2,26.6 28.6,26.6 32.5,15.3 35.6,15.3 39.5,26.6 36.9,26.6 34.1,17.8 34,17.8 		"/>
		<path class="st1" d="M39.9,17.2v-2h9.3v2h-3.5v9.4h-2.4v-9.4H39.9z"/>
		<path class="st1" d="M51.8,26.6V15.3h2.4v4.7H59v-4.7h2.4v11.3H59v-4.7h-4.9v4.7H51.8z"/>
		<path class="st1" d="M65.2,26.6V15.3h7.6v2h-5.2v2.7h4.8v2h-4.8v2.7h5.3v2H65.2z"/>
		<path class="st1" d="M86.2,15.3v11.3h-2.1l-4.9-7.1h-0.1v7.1h-2.4V15.3h2.1l4.9,7.1h0.1v-7.1L86.2,15.3L86.2,15.3z"/>
		<path class="st1" d="M94.6,26.6h-4V15.3h4c1.1,0,2.1,0.2,2.9,0.7c0.8,0.4,1.5,1.1,1.9,1.9c0.4,0.8,0.7,1.9,0.7,3
			c0,1.2-0.2,2.2-0.7,3c-0.4,0.8-1.1,1.5-1.9,1.9C96.7,26.4,95.8,26.6,94.6,26.6z M93,24.5h1.5c0.7,0,1.3-0.1,1.8-0.4
			c0.5-0.3,0.8-0.6,1.1-1.2c0.2-0.5,0.4-1.2,0.4-2.1s-0.1-1.5-0.4-2.1s-0.6-0.9-1.1-1.2c-0.5-0.3-1.1-0.4-1.8-0.4H93L93,24.5
			L93,24.5z"/>
		<polygon class="st1" points="104.9,26.6 102.3,26.6 106.2,15.3 109.3,15.3 113.2,26.6 110.6,26.6 107.8,17.8 107.7,17.8 		"/>
		<path class="st1" d="M113.6,17.2v-2h9.3v2h-3.5v9.4H117v-9.4H113.6z"/>
	</g>
</g>
</svg>
